<svg width="554" height="83" viewBox="0 0 554 83" fill="none" xmlns="http://www.w3.org/2000/svg">
<path d="M535.5 7.25C535.5 11.9167 535.5 16.5833 535.5 21.25C535.5 24.6493 537.5 34.6493 537.5 31.25" stroke="black" stroke-linecap="round"/>
<path d="M529 21.25C530.655 21.25 544.789 21.3311 544.417 20.0278C544.158 19.1226 534.541 19.75 533.5 19.75C532.257 19.75 528.563 20.25 529.806 20.25C531.62 20.25 533.435 20.25 535.25 20.25C538.133 20.25 541.358 19.25 544.5 19.25" stroke="black" stroke-linecap="round"/>
<path d="M535.75 25.25C535.75 28.3867 535.625 31.492 535.625 34.625" stroke="black" stroke-linecap="round"/>
<path d="M535.75 19.75C535.75 20.8303 536.192 21.72 536.424 22.75C536.679 23.8865 536.617 25.0603 536.812 26.1944C537.031 27.4631 537 28.7069 537 29.9931C537 30.6409 537.053 31.4192 536.778 32C536.568 32.4434 536.753 33.9361 536.375 34.125" stroke="black" stroke-linecap="round"/>
<path d="M534.875 11.875C534.875 15.4792 534.875 19.0833 534.875 22.6875C534.875 23.7117 535.097 24.7296 535.125 25.75C535.137 26.1952 535.25 26.6292 535.25 27.0625C535.25 27.1827 535.25 27.8281 535.25 27.375" stroke="black" stroke-linecap="round"/>
<path d="M536 12.25C536.087 13.1224 536.367 13.9969 536.472 14.875C536.571 15.7022 536.408 16.551 536.528 17.375C536.675 18.3877 536.75 19.4192 536.75 20.4444C536.75 21.8981 536.75 23.3519 536.75 24.8056C536.75 25.1944 536.75 25.5833 536.75 25.9722C536.75 26.3821 536.643 24.7516 536.625 24.5" stroke="black" stroke-linecap="round"/>
<path d="M536 12.625C536 15.6617 536.375 18.6587 536.375 21.6944C536.375 22.7963 536.375 23.8981 536.375 25C536.375 25.4432 536.517 26.5687 536.25 25.5" stroke="black" stroke-linecap="round"/>
<path d="M535.25 13C535.25 15.5288 535.625 18.0431 535.625 20.5833C535.625 21.6389 535.625 22.6944 535.625 23.75C535.625 24.4074 535.625 25.0648 535.625 25.7222C535.625 26.6008 535.375 27.4398 535.375 28.3056C535.375 30.122 534.333 24.8053 534.132 23C533.935 21.2239 534 19.4151 534 17.625" stroke="black" stroke-linecap="round"/>
<path d="M527.75 20.875H528.75" stroke="black" stroke-linecap="round"/>
<path d="M549.25 1C549.25 4.08102 549.25 7.16204 549.25 10.2431C549.25 10.9327 549.5 11.6126 549.5 12.2917C549.5 13.1574 549.5 10.5602 549.5 9.69444C549.5 7.00463 549.5 4.31481 549.5 1.625" stroke="black" stroke-linecap="round"/>
<path d="M545.75 6H552.875" stroke="black" stroke-linecap="round"/>
<path d="M547.625 6.25C546.337 6.41096 550.42 7.34483 551.5 6.625" stroke="black" stroke-linecap="round"/>
<path d="M548.5 6.375C548.125 6.67531 546.818 6.51005 546.625 6.125" stroke="black" stroke-linecap="round"/>
<path d="M547.75 6.5C547.381 6.5 546.546 6.59213 546.375 6.25" stroke="black" stroke-linecap="round"/>
<path d="M551.625 6.5C552.241 6.5 552.722 6.0802 553.25 5.75" stroke="black" stroke-linecap="round"/>
<path d="M550.25 4.875C550.25 5.39632 550.585 5.4866 551 5.625" stroke="black" stroke-linecap="round"/>
<path d="M549.375 5C549.14 5.20931 548.781 5.18852 548.625 5.5" stroke="black" stroke-linecap="round"/>
<path d="M8.125 59.375C8.125 61.3426 8.125 63.3102 8.125 65.2778C8.125 66.2401 7.875 67.1482 7.875 68.125C7.875 69.1388 7.75 70.2082 7.75 71.25C7.75 73.2659 7.625 75.2498 7.625 77.2431C7.625 78.7823 7.75 80.4031 7.75 81.875" stroke="black" stroke-linecap="round"/>
<path d="M1 71.875C2.70833 71.875 4.41667 71.875 6.125 71.875C7.5034 71.875 8.87807 71.625 10.25 71.625C11.1595 71.625 11.8528 71.1574 12.6806 71.0069C13.1613 70.9195 13.699 70.838 14.125 70.625" stroke="black" stroke-linecap="round"/>
<path d="M3.5 71.625C4.36548 71.5463 5.10346 70.9433 6.00694 70.8681C7.06149 70.7802 8.05966 70.625 9.125 70.625C10.125 70.625 11.125 70.625 12.125 70.625" stroke="black" stroke-linecap="round"/>
<path d="M5.125 70.5C4.85551 70.5 4.04202 70.7287 3.875 70.9375C3.67158 71.1918 1.95559 71.4009 3.94445 71.0694C4.37823 70.9971 5.23184 70.8962 5.59722 70.5972C5.94074 70.3162 6.52914 70.62 6.93056 70.4375C7.45788 70.1978 8.08153 70.1812 8.625 70" stroke="black" stroke-linecap="round"/>
<path d="M7.25 70.375C7.25 69.5359 7.12661 68.6198 7.375 67.8125C7.47209 67.497 7.625 66.524 7.625 66.8542C7.625 67.3324 7.67041 67.8182 7.52778 68.2778C7.42569 68.6067 7.44496 68.9601 7.34722 69.2778C7.26533 69.5439 7.06596 69.7969 7.00694 70.0625C6.93766 70.3743 6.32752 71.2719 6.6875 70.6319C6.90714 70.2415 7.05721 69.8063 7.3125 69.4375C7.57253 69.0619 7.49938 68.5789 7.75 68.25C7.97182 67.9589 8.125 66.4001 8.125 66.4583C8.125 68.5694 8.5 70.6607 8.5 72.7778C8.5 73.4408 8.5 73.351 8.5 72.7083C8.5 72.0552 8.50142 71.4989 8.31944 70.875C8.07398 70.0334 8.125 68.8523 8.125 67.9722C8.125 67.4559 8.19121 66.8871 8.11805 66.375C8.07518 66.0749 8.01957 65.8131 8 65.5C7.99133 65.3613 7.75 66.1426 7.75 66.3194C7.75 66.733 7.70291 67.2318 7.5625 67.625C7.39637 68.0902 7.5 67.1718 7.5 67C7.5 66.4398 7.5 65.8796 7.5 65.3194C7.5 64.7811 7.59849 64.2536 7.625 63.75C7.64648 63.3418 7.64873 62.5894 7.875 62.25" stroke="black" stroke-linecap="round"/>
<path d="M7.125 71.5C7.125 72.7204 6.92943 74.0767 7.4375 75.1944C7.87501 76.157 7.875 77.6965 7.875 78.75" stroke="black" stroke-linecap="round"/>
<path d="M535.5 15C535.5 17.2047 534.75 19.4027 534.75 21.6389C534.75 22.5679 534.75 23.8062 534.75 21.9861C534.75 20.8194 534.75 19.6528 534.75 18.4861C534.75 17.7407 534.75 16.9954 534.75 16.25C534.75 15.1828 535.368 14.8874 534.944 16C534.713 16.608 534.526 17.7796 534.5 18.4444C534.487 18.7817 534.5 20.2629 534.5 19.1389C534.5 17.8981 534.5 14.1759 534.5 15.4167C534.5 16.8194 534.5 18.2222 534.5 19.625C534.5 20.1115 534.252 21.4632 534.556 21.0833C534.916 20.6327 535 19.132 535 18.5C535 17.2393 535.5 16.0238 535.5 14.75" stroke="black" stroke-linecap="round"/>
<path d="M536 18.25C536.615 18.9418 536.5 20.3707 536.5 21.25C536.5 21.5314 536.329 22.7936 536.556 22.9444C536.946 23.2048 536.974 21.5542 537.014 21.375C537.074 21.1039 537.337 21.1032 537.444 20.8889C537.503 20.7726 537.437 20.2778 537.625 20.2778C538.019 20.2778 537.607 21.8752 537.5 22.0556C537.238 22.4975 536.5 25.1604 536.5 23.75" stroke="black" stroke-linecap="round"/>
<path d="M536.5 15.25C536.5 16.5533 536.679 17.7274 536.75 19C536.783 19.6014 537.127 20.2863 537.236 20.8889C537.296 21.2169 537.25 22.2223 537.25 21.8889C537.25 21.1389 537.25 20.3889 537.25 19.6389C537.25 18.6111 537.25 17.5833 537.25 16.5556C537.25 16.4777 537.25 18.622 537.25 19.1944C537.25 21.2838 537.617 23.7947 537.236 25.8889C537.119 26.5313 537 28.4862 537 27.8333C537 26.2639 537 24.6944 537 23.125C537 22.5 537 21.875 537 21.25C537 19.6466 537.003 24.2435 537 24.5833C536.971 27.824 536.5 30.7638 536.5 34" stroke="black" stroke-linecap="round"/>
<path d="M535.75 16C535.75 14.6029 535.5 13.2839 535.5 11.875C535.5 10.7994 535.587 9.75952 535.25 8.75" stroke="black" stroke-linecap="round"/>
<path d="M535.5 9.25V14" stroke="black" stroke-linecap="round"/>
<path d="M535.75 11V14.5" stroke="black" stroke-linecap="round"/>
<path d="M548 6.5C548.104 7.33029 549.891 7 550.5 7" stroke="black" stroke-linecap="round"/>
<path d="M548.5 7C548.94 7 550.93 7.04173 550.653 7.13889C549.923 7.39435 547.588 7.5 548.361 7.5C548.907 7.5 549.454 7.5 550 7.5" stroke="black" stroke-linecap="round"/>
<path d="M550.5 7.25C550.052 7.30605 549.75 8.85053 549.75 9.25" stroke="black" stroke-linecap="round"/>
<path d="M549 6.5C549 5.09717 549.5 3.60362 549.5 2.25" stroke="black" stroke-linecap="round"/>
<path d="M549 6C549 4.86411 549.25 3.88522 549.25 2.75" stroke="black" stroke-linecap="round"/>
<path d="M549 7.25C549 8.04129 549.25 8.78445 549.25 9.5" stroke="black" stroke-linecap="round"/>
<path d="M548.25 6.25C548.25 5.72327 548.583 5.52813 549 5.25" stroke="black" stroke-linecap="round"/>
<path d="M541.25 20C540.428 20 539.343 20.1821 538.556 20.4444C538.367 20.5072 540.186 20.1882 540.75 20" stroke="black" stroke-linecap="round"/>
<path d="M539.5 21C539.062 21.389 538.479 21.3824 538.056 21.8056C537.673 22.1878 536.986 22.838 536.5 23" stroke="black" stroke-linecap="round"/>
<path d="M539.5 21.25C539.391 22.1184 538.149 22.2004 537.806 22.75C537.013 24.0177 536.093 25.0185 535.5 26.5" stroke="black" stroke-linecap="round"/>
<path d="M536 9V13.5" stroke="black" stroke-linecap="round"/>
<path d="M536.5 14.5C535.548 14.3809 536 10.379 536 9.5" stroke="black" stroke-linecap="round"/>
<path d="M8 71V80.5" stroke="black" stroke-linecap="round"/>
<path d="M535.5 9.75V12.75" stroke="black" stroke-linecap="round"/>
<path d="M535.25 13C534.732 12.9352 535 9.11044 535 8.5" stroke="black" stroke-linecap="round"/>
<path d="M541.75 20.25C542.317 20.1366 543.596 19.6692 544.125 19.375C544.624 19.0979 545.243 19.2535 545.75 19" stroke="black" stroke-linecap="round"/>
<path d="M529.75 21C528.727 21 527.708 21.25 526.75 21.25" stroke="black" stroke-linecap="round"/>
<path d="M533 21.75C533.642 21.75 534.543 21.6071 534.944 22.25C535.072 22.4535 535.598 23.1742 535.75 23.25" stroke="black" stroke-linecap="round"/>
<path d="M534.25 21.75C534.305 22.1877 535.833 23.0417 536.25 23.25" stroke="black" stroke-linecap="round"/>
<path d="M534 19.75C533.194 19.6492 534.634 17.7442 535 17.5" stroke="black" stroke-linecap="round"/>
<path d="M536.75 17.5C536.841 18.3225 538.336 18.7787 539 19" stroke="black" stroke-linecap="round"/>
<path d="M534.25 18.75C533.777 18.8025 533.391 19.0768 533.25 19.5" stroke="black" stroke-linecap="round"/>
<path d="M536 8.50003C535.598 8.44978 535.313 5.59599 535.306 5.61114C535.036 6.15011 535.032 7.63811 535 8.25003C534.97 8.82969 535 9.41945 535 10" stroke="black" stroke-linecap="round"/>
<path d="M7.25 71.75C7.22787 71.75 10.8025 71.5 9.27778 71.5C7.80556 71.5 3.38889 71.5 4.86111 71.5C6.82407 71.5 8.78704 71.5 10.75 71.5" stroke="black" stroke-linecap="round"/>
<path d="M6.5 72.25C7.14815 72.25 7.7963 72.25 8.44445 72.25C8.59396 72.25 7.13232 72.25 6.75 72.25C5.84244 72.25 4.59301 72.3714 6.25 71.75" stroke="black" stroke-linecap="round"/>
<path d="M8.5 71.25C9.12132 71.25 12.4341 71.6317 12.75 71" stroke="black" stroke-linecap="round"/>
<path d="M8.5 71.5C8.6069 72.3552 11.5193 71.4102 12 71.25" stroke="black" stroke-linecap="round"/>
<path d="M9.75 71.25H11.75" stroke="black" stroke-linecap="round"/>
<path d="M8.75 72.25C8.10185 72.25 7.4537 72.25 6.80555 72.25C5.06547 72.25 7.93468 72.25 8.36111 72.25C8.98698 72.25 11.4965 72.25 9.375 72.25C8.41667 72.25 7.45833 72.25 6.5 72.25C5.87598 72.25 5.3494 72.4625 4.75 72.5C3.3823 72.5855 7.49074 72.5 8.86111 72.5C9.55802 72.5 10.4464 72.25 9.06944 72.25C7.62963 72.25 6.18981 72.25 4.75 72.25" stroke="black" stroke-linecap="round"/>
</svg>
